<mxfile host="app.diagrams.net" modified="2021-04-24T17:48:31.427Z" agent="5.0 (Windows NT 10.0; Win64; x64) AppleWebKit/537.36 (KHTML, like Gecko) Chrome/90.0.4430.85 Safari/537.36" etag="6YPhsyAD6VxLoWVrXOi_" version="14.6.3" type="github">
  <diagram id="rA4zyZXfhEQUoGEJqguG" name="Page-1">
    <mxGraphModel dx="1202" dy="514" grid="1" gridSize="10" guides="1" tooltips="1" connect="1" arrows="1" fold="1" page="1" pageScale="1" pageWidth="827" pageHeight="1169" math="0" shadow="0">
      <root>
        <mxCell id="0" />
        <mxCell id="1" parent="0" />
        <mxCell id="CSgHhYVVpS6YTIUa06nC-2" value=":ItemListener" style="shape=umlLifeline;perimeter=lifelinePerimeter;whiteSpace=wrap;html=1;container=1;collapsible=0;recursiveResize=0;outlineConnect=0;" vertex="1" parent="1">
          <mxGeometry x="270" y="120" width="100" height="560" as="geometry" />
        </mxCell>
        <mxCell id="CSgHhYVVpS6YTIUa06nC-3" value="" style="html=1;points=[];perimeter=orthogonalPerimeter;" vertex="1" parent="CSgHhYVVpS6YTIUa06nC-2">
          <mxGeometry x="45" y="80" width="10" height="370" as="geometry" />
        </mxCell>
        <mxCell id="CSgHhYVVpS6YTIUa06nC-4" value="" style="shape=umlLifeline;participant=umlActor;perimeter=lifelinePerimeter;whiteSpace=wrap;html=1;container=1;collapsible=0;recursiveResize=0;verticalAlign=top;spacingTop=36;outlineConnect=0;" vertex="1" parent="1">
          <mxGeometry x="60" y="120" width="20" height="560" as="geometry" />
        </mxCell>
        <mxCell id="CSgHhYVVpS6YTIUa06nC-5" value="itemStateChanged(ItemEvent SELECTED)" style="html=1;verticalAlign=bottom;endArrow=block;entryX=0;entryY=0;" edge="1" parent="1" source="CSgHhYVVpS6YTIUa06nC-4" target="CSgHhYVVpS6YTIUa06nC-3">
          <mxGeometry x="-0.021" relative="1" as="geometry">
            <mxPoint x="135" y="170" as="sourcePoint" />
            <mxPoint as="offset" />
          </mxGeometry>
        </mxCell>
        <mxCell id="CSgHhYVVpS6YTIUa06nC-6" value="" style="html=1;verticalAlign=bottom;endArrow=open;dashed=1;endSize=8;exitX=0;exitY=0.95;" edge="1" parent="1" source="CSgHhYVVpS6YTIUa06nC-3" target="CSgHhYVVpS6YTIUa06nC-4">
          <mxGeometry x="0.1021" y="-58" relative="1" as="geometry">
            <mxPoint x="135" y="246" as="targetPoint" />
            <mxPoint as="offset" />
          </mxGeometry>
        </mxCell>
        <mxCell id="CSgHhYVVpS6YTIUa06nC-7" value="cboxMozog: JComboBox" style="shape=umlLifeline;perimeter=lifelinePerimeter;whiteSpace=wrap;html=1;container=1;collapsible=0;recursiveResize=0;outlineConnect=0;" vertex="1" parent="1">
          <mxGeometry x="414" y="120" width="100" height="560" as="geometry" />
        </mxCell>
        <mxCell id="CSgHhYVVpS6YTIUa06nC-8" value="" style="html=1;points=[];perimeter=orthogonalPerimeter;" vertex="1" parent="CSgHhYVVpS6YTIUa06nC-7">
          <mxGeometry x="45" y="100" width="10" height="40" as="geometry" />
        </mxCell>
        <mxCell id="CSgHhYVVpS6YTIUa06nC-9" value="getSelectedItem()" style="html=1;verticalAlign=bottom;endArrow=block;entryX=0;entryY=0;" edge="1" parent="1" source="CSgHhYVVpS6YTIUa06nC-3" target="CSgHhYVVpS6YTIUa06nC-8">
          <mxGeometry relative="1" as="geometry">
            <mxPoint x="389" y="220" as="sourcePoint" />
          </mxGeometry>
        </mxCell>
        <mxCell id="CSgHhYVVpS6YTIUa06nC-10" value="m: Object" style="html=1;verticalAlign=bottom;endArrow=open;dashed=1;endSize=8;exitX=0;exitY=0.95;" edge="1" parent="1" source="CSgHhYVVpS6YTIUa06nC-8" target="CSgHhYVVpS6YTIUa06nC-2">
          <mxGeometry x="-0.0065" relative="1" as="geometry">
            <mxPoint x="389" y="296" as="targetPoint" />
            <mxPoint as="offset" />
          </mxGeometry>
        </mxCell>
        <mxCell id="CSgHhYVVpS6YTIUa06nC-11" value="curr: Telepes" style="shape=umlLifeline;perimeter=lifelinePerimeter;whiteSpace=wrap;html=1;container=1;collapsible=0;recursiveResize=0;outlineConnect=0;" vertex="1" parent="1">
          <mxGeometry x="560" y="120" width="100" height="570" as="geometry" />
        </mxCell>
        <mxCell id="CSgHhYVVpS6YTIUa06nC-12" value="" style="html=1;points=[];perimeter=orthogonalPerimeter;" vertex="1" parent="CSgHhYVVpS6YTIUa06nC-11">
          <mxGeometry x="45" y="170" width="10" height="40" as="geometry" />
        </mxCell>
        <mxCell id="CSgHhYVVpS6YTIUa06nC-14" value="Mozog(m: Mezo)" style="html=1;verticalAlign=bottom;endArrow=block;entryX=0;entryY=0;" edge="1" parent="1" source="CSgHhYVVpS6YTIUa06nC-2" target="CSgHhYVVpS6YTIUa06nC-12">
          <mxGeometry x="-0.0183" relative="1" as="geometry">
            <mxPoint x="535" y="275" as="sourcePoint" />
            <mxPoint as="offset" />
          </mxGeometry>
        </mxCell>
        <mxCell id="CSgHhYVVpS6YTIUa06nC-15" value="" style="html=1;verticalAlign=bottom;endArrow=open;dashed=1;endSize=8;exitX=0;exitY=0.95;" edge="1" parent="1" source="CSgHhYVVpS6YTIUa06nC-12" target="CSgHhYVVpS6YTIUa06nC-3">
          <mxGeometry relative="1" as="geometry">
            <mxPoint x="535" y="351" as="targetPoint" />
          </mxGeometry>
        </mxCell>
        <mxCell id="CSgHhYVVpS6YTIUa06nC-16" value=":Palya" style="shape=umlLifeline;perimeter=lifelinePerimeter;whiteSpace=wrap;html=1;container=1;collapsible=0;recursiveResize=0;outlineConnect=0;" vertex="1" parent="1">
          <mxGeometry x="700" y="120" width="100" height="580" as="geometry" />
        </mxCell>
        <mxCell id="CSgHhYVVpS6YTIUa06nC-17" value="" style="html=1;points=[];perimeter=orthogonalPerimeter;" vertex="1" parent="CSgHhYVVpS6YTIUa06nC-16">
          <mxGeometry x="45" y="250" width="10" height="50" as="geometry" />
        </mxCell>
        <mxCell id="CSgHhYVVpS6YTIUa06nC-18" value="nextTelepes()" style="html=1;verticalAlign=bottom;endArrow=block;entryX=0;entryY=0;" edge="1" parent="1" source="CSgHhYVVpS6YTIUa06nC-3" target="CSgHhYVVpS6YTIUa06nC-17">
          <mxGeometry relative="1" as="geometry">
            <mxPoint x="675" y="420" as="sourcePoint" />
          </mxGeometry>
        </mxCell>
        <mxCell id="CSgHhYVVpS6YTIUa06nC-19" value="t: Telepes" style="html=1;verticalAlign=bottom;endArrow=open;dashed=1;endSize=8;exitX=0;exitY=0.95;" edge="1" parent="1" source="CSgHhYVVpS6YTIUa06nC-17" target="CSgHhYVVpS6YTIUa06nC-2">
          <mxGeometry relative="1" as="geometry">
            <mxPoint x="675" y="496" as="targetPoint" />
          </mxGeometry>
        </mxCell>
        <mxCell id="CSgHhYVVpS6YTIUa06nC-25" value="form: MainGui" style="shape=umlLifeline;perimeter=lifelinePerimeter;whiteSpace=wrap;html=1;container=1;collapsible=0;recursiveResize=0;outlineConnect=0;" vertex="1" parent="1">
          <mxGeometry x="820" y="120" width="100" height="570" as="geometry" />
        </mxCell>
        <mxCell id="CSgHhYVVpS6YTIUa06nC-26" value="" style="html=1;points=[];perimeter=orthogonalPerimeter;" vertex="1" parent="CSgHhYVVpS6YTIUa06nC-25">
          <mxGeometry x="45" y="340" width="10" height="50" as="geometry" />
        </mxCell>
        <mxCell id="CSgHhYVVpS6YTIUa06nC-27" value="changeTelepes(t)" style="html=1;verticalAlign=bottom;endArrow=block;entryX=0;entryY=0;" edge="1" parent="1" source="CSgHhYVVpS6YTIUa06nC-3" target="CSgHhYVVpS6YTIUa06nC-26">
          <mxGeometry relative="1" as="geometry">
            <mxPoint x="795" y="550" as="sourcePoint" />
          </mxGeometry>
        </mxCell>
        <mxCell id="CSgHhYVVpS6YTIUa06nC-28" value="" style="html=1;verticalAlign=bottom;endArrow=open;dashed=1;endSize=8;exitX=0;exitY=0.95;" edge="1" parent="1" source="CSgHhYVVpS6YTIUa06nC-26" target="CSgHhYVVpS6YTIUa06nC-2">
          <mxGeometry relative="1" as="geometry">
            <mxPoint x="795" y="626" as="targetPoint" />
          </mxGeometry>
        </mxCell>
      </root>
    </mxGraphModel>
  </diagram>
</mxfile>
